REM MD5 3c884363483aa1c5028cf9f6d2e16d58
FILE "Another Memories (Japan).bin" BINARY
  TRACK 01 MODE2/2352
    INDEX 01 00:00:00
  TRACK 02 AUDIO
    INDEX 00 58:40:07
    INDEX 01 58:42:07
  TRACK 03 AUDIO
    INDEX 00 63:29:40
    INDEX 01 63:31:40
REM LEADOUT 63:55:45
